<?xml version="1.0" encoding="UTF-8" standalone="no"?>
<!DOCTYPE svg PUBLIC "-//W3C//DTD SVG 1.1//EN"
 "http://www.w3.org/Graphics/SVG/1.1/DTD/svg11.dtd">
<!-- Generated by graphviz version 14.1.3 (20260303.0454)
 -->
<!-- Pages: 1 -->
<svg width="882pt" height="620pt"
 viewBox="0.00 0.00 882.00 620.00" xmlns="http://www.w3.org/2000/svg" xmlns:xlink="http://www.w3.org/1999/xlink">
<g id="graph0" class="graph" transform="scale(1 1) rotate(0) translate(4 616)">
<polygon fill="white" stroke="none" points="-4,4 -4,-616 878.4,-616 878.4,4 -4,4"/>
<!-- [root] aws_s3_bucket.frontend (expand) -->
<g id="node1" class="node">
<title>[root] aws_s3_bucket.frontend (expand)</title>
<polygon fill="none" stroke="black" points="536.25,-180 388.25,-180 388.25,-144 536.25,-144 536.25,-180"/>
<text xml:space="preserve" text-anchor="middle" x="462.25" y="-156.95" font-family="Times,serif" font-size="14.00">aws_s3_bucket.frontend</text>
</g>
<!-- [root] provider[&quot;registry.terraform.io/hashicorp/aws&quot;] -->
<g id="node5" class="node">
<title>[root] provider[&quot;registry.terraform.io/hashicorp/aws&quot;]</title>
<polygon fill="none" stroke="black" points="462.25,-36 197.82,-18 462.25,0 726.68,-18 462.25,-36"/>
<text xml:space="preserve" text-anchor="middle" x="462.25" y="-12.95" font-family="Times,serif" font-size="14.00">provider[&quot;registry.terraform.io/hashicorp/aws&quot;]</text>
</g>
<!-- [root] aws_s3_bucket.frontend (expand)&#45;&gt;[root] provider[&quot;registry.terraform.io/hashicorp/aws&quot;] -->
<g id="edge1" class="edge">
<title>[root] aws_s3_bucket.frontend (expand)&#45;&gt;[root] provider[&quot;registry.terraform.io/hashicorp/aws&quot;]</title>
<path fill="none" stroke="black" d="M462.25,-143.76C462.25,-143.76 462.25,-47.6 462.25,-47.6"/>
<polygon fill="black" stroke="black" points="465.75,-47.6 462.25,-37.6 458.75,-47.6 465.75,-47.6"/>
</g>
<!-- [root] aws_s3_bucket_public_access_block.frontend (expand) -->
<g id="node2" class="node">
<title>[root] aws_s3_bucket_public_access_block.frontend (expand)</title>
<polygon fill="none" stroke="black" points="266.5,-324 0,-324 0,-288 266.5,-288 266.5,-324"/>
<text xml:space="preserve" text-anchor="middle" x="133.25" y="-300.95" font-family="Times,serif" font-size="14.00">aws_s3_bucket_public_access_block.frontend</text>
</g>
<!-- [root] aws_s3_bucket_public_access_block.frontend (expand)&#45;&gt;[root] aws_s3_bucket.frontend (expand) -->
<g id="edge2" class="edge">
<title>[root] aws_s3_bucket_public_access_block.frontend (expand)&#45;&gt;[root] aws_s3_bucket.frontend (expand)</title>
<path fill="none" stroke="black" d="M232.16,-287.76C232.16,-249.01 232.16,-162 232.16,-162 232.16,-162 376.35,-162 376.35,-162"/>
<polygon fill="black" stroke="black" points="376.35,-165.5 386.35,-162 376.35,-158.5 376.35,-165.5"/>
</g>
<!-- [root] aws_s3_object.frontend_files (expand) -->
<g id="node3" class="node">
<title>[root] aws_s3_object.frontend_files (expand)</title>
<polygon fill="none" stroke="black" points="832.75,-324 657.75,-324 657.75,-288 832.75,-288 832.75,-324"/>
<text xml:space="preserve" text-anchor="middle" x="745.25" y="-300.95" font-family="Times,serif" font-size="14.00">aws_s3_object.frontend_files</text>
</g>
<!-- [root] aws_s3_object.frontend_files (expand)&#45;&gt;[root] aws_s3_bucket.frontend (expand) -->
<g id="edge3" class="edge">
<title>[root] aws_s3_object.frontend_files (expand)&#45;&gt;[root] aws_s3_bucket.frontend (expand)</title>
<path fill="none" stroke="black" d="M716.08,-287.83C716.08,-266.5 716.08,-234 716.08,-234 716.08,-234 486.92,-234 486.92,-234 486.92,-234 486.92,-191.68 486.92,-191.68"/>
<polygon fill="black" stroke="black" points="490.42,-191.68 486.92,-181.68 483.42,-191.68 490.42,-191.68"/>
</g>
<!-- [root] local.s3_objects (expand) -->
<g id="node6" class="node">
<title>[root] local.s3_objects (expand)</title>
<ellipse fill="none" stroke="black" cx="745.25" cy="-162" rx="129.15" ry="18"/>
<text xml:space="preserve" text-anchor="middle" x="745.25" y="-156.95" font-family="Times,serif" font-size="14.00">[root] local.s3_objects (expand)</text>
</g>
<!-- [root] aws_s3_object.frontend_files (expand)&#45;&gt;[root] local.s3_objects (expand) -->
<g id="edge4" class="edge">
<title>[root] aws_s3_object.frontend_files (expand)&#45;&gt;[root] local.s3_objects (expand)</title>
<path fill="none" stroke="black" d="M774.42,-287.76C774.42,-287.76 774.42,-191.15 774.42,-191.15"/>
<polygon fill="black" stroke="black" points="777.92,-191.15 774.42,-181.15 770.92,-191.15 777.92,-191.15"/>
</g>
<!-- [root] data.aws_iam_policy_document.public_read_objects (expand) -->
<g id="node4" class="node">
<title>[root] data.aws_iam_policy_document.public_read_objects (expand)</title>
<polygon fill="none" stroke="black" points="614.62,-324 309.88,-324 309.88,-288 614.62,-288 614.62,-324"/>
<text xml:space="preserve" text-anchor="middle" x="462.25" y="-300.95" font-family="Times,serif" font-size="14.00">data.aws_iam_policy_document.public_read_objects</text>
</g>
<!-- [root] data.aws_iam_policy_document.public_read_objects (expand)&#45;&gt;[root] aws_s3_bucket.frontend (expand) -->
<g id="edge5" class="edge">
<title>[root] data.aws_iam_policy_document.public_read_objects (expand)&#45;&gt;[root] aws_s3_bucket.frontend (expand)</title>
<path fill="none" stroke="black" d="M437.58,-287.76C437.58,-287.76 437.58,-191.6 437.58,-191.6"/>
<polygon fill="black" stroke="black" points="441.08,-191.6 437.58,-181.6 434.08,-191.6 441.08,-191.6"/>
</g>
<!-- [root] provider[&quot;registry.terraform.io/hashicorp/aws&quot;] (close) -->
<g id="node7" class="node">
<title>[root] provider[&quot;registry.terraform.io/hashicorp/aws&quot;] (close)</title>
<ellipse fill="none" stroke="black" cx="462.25" cy="-450" rx="238.16" ry="18"/>
<text xml:space="preserve" text-anchor="middle" x="462.25" y="-444.95" font-family="Times,serif" font-size="14.00">[root] provider[&quot;registry.terraform.io/hashicorp/aws&quot;] (close)</text>
</g>
<!-- [root] provider[&quot;registry.terraform.io/hashicorp/aws&quot;] (close)&#45;&gt;[root] aws_s3_bucket_public_access_block.frontend (expand) -->
<g id="edge6" class="edge">
<title>[root] provider[&quot;registry.terraform.io/hashicorp/aws&quot;] (close)&#45;&gt;[root] aws_s3_bucket_public_access_block.frontend (expand)</title>
<path fill="none" stroke="black" d="M245.29,-442.66C245.29,-442.66 245.29,-335.99 245.29,-335.99"/>
<polygon fill="black" stroke="black" points="248.79,-335.99 245.29,-325.99 241.79,-335.99 248.79,-335.99"/>
</g>
<!-- [root] provider[&quot;registry.terraform.io/hashicorp/aws&quot;] (close)&#45;&gt;[root] aws_s3_object.frontend_files (expand) -->
<g id="edge7" class="edge">
<title>[root] provider[&quot;registry.terraform.io/hashicorp/aws&quot;] (close)&#45;&gt;[root] aws_s3_object.frontend_files (expand)</title>
<path fill="none" stroke="black" d="M679.08,-442.66C679.08,-442.66 679.08,-335.99 679.08,-335.99"/>
<polygon fill="black" stroke="black" points="682.58,-335.99 679.08,-325.99 675.58,-335.99 682.58,-335.99"/>
</g>
<!-- [root] provider[&quot;registry.terraform.io/hashicorp/aws&quot;] (close)&#45;&gt;[root] data.aws_iam_policy_document.public_read_objects (expand) -->
<g id="edge8" class="edge">
<title>[root] provider[&quot;registry.terraform.io/hashicorp/aws&quot;] (close)&#45;&gt;[root] data.aws_iam_policy_document.public_read_objects (expand)</title>
<path fill="none" stroke="black" d="M462.25,-431.76C462.25,-431.76 462.25,-335.6 462.25,-335.6"/>
<polygon fill="black" stroke="black" points="465.75,-335.6 462.25,-325.6 458.75,-335.6 465.75,-335.6"/>
</g>
<!-- [root] root -->
<g id="node8" class="node">
<title>[root] root</title>
<ellipse fill="none" stroke="black" cx="462.25" cy="-594" rx="49.3" ry="18"/>
<text xml:space="preserve" text-anchor="middle" x="462.25" y="-588.95" font-family="Times,serif" font-size="14.00">[root] root</text>
</g>
<!-- [root] root&#45;&gt;[root] provider[&quot;registry.terraform.io/hashicorp/aws&quot;] (close) -->
<g id="edge9" class="edge">
<title>[root] root&#45;&gt;[root] provider[&quot;registry.terraform.io/hashicorp/aws&quot;] (close)</title>
<path fill="none" stroke="black" d="M462.25,-575.76C462.25,-575.76 462.25,-479.6 462.25,-479.6"/>
<polygon fill="black" stroke="black" points="465.75,-479.6 462.25,-469.6 458.75,-479.6 465.75,-479.6"/>
</g>
</g>
</svg>
