<?xml version="1.0" encoding="UTF-8" standalone="no"?>
<!DOCTYPE svg PUBLIC "-//W3C//DTD SVG 1.1//EN"
 "http://www.w3.org/Graphics/SVG/1.1/DTD/svg11.dtd">
<!-- Generated by graphviz version 14.1.3 (20260303.0454)
 -->
<!-- Pages: 1 -->
<svg width="832pt" height="332pt"
 viewBox="0.00 0.00 832.00 332.00" xmlns="http://www.w3.org/2000/svg" xmlns:xlink="http://www.w3.org/1999/xlink">
<g id="graph0" class="graph" transform="scale(1 1) rotate(0) translate(4 328)">
<polygon fill="white" stroke="none" points="-4,4 -4,-328 828.4,-328 828.4,4 -4,4"/>
<!-- [root] aws_s3_bucket.frontend (expand) -->
<g id="node1" class="node">
<title>[root] aws_s3_bucket.frontend (expand)</title>
<polygon fill="none" stroke="black" points="511.25,-108 363.25,-108 363.25,-72 511.25,-72 511.25,-108"/>
<text xml:space="preserve" text-anchor="middle" x="437.25" y="-84.95" font-family="Times,serif" font-size="14.00">aws_s3_bucket.frontend</text>
</g>
<!-- [root] provider[&quot;registry.terraform.io/hashicorp/aws&quot;] -->
<g id="node5" class="node">
<title>[root] provider[&quot;registry.terraform.io/hashicorp/aws&quot;]</title>
<polygon fill="none" stroke="black" points="437.25,-36 172.82,-18 437.25,0 701.68,-18 437.25,-36"/>
<text xml:space="preserve" text-anchor="middle" x="437.25" y="-12.95" font-family="Times,serif" font-size="14.00">provider[&quot;registry.terraform.io/hashicorp/aws&quot;]</text>
</g>
<!-- [root] aws_s3_bucket.frontend (expand)&#45;&gt;[root] provider[&quot;registry.terraform.io/hashicorp/aws&quot;] -->
<g id="edge1" class="edge">
<title>[root] aws_s3_bucket.frontend (expand)&#45;&gt;[root] provider[&quot;registry.terraform.io/hashicorp/aws&quot;]</title>
<path fill="none" stroke="black" d="M437.25,-71.83C437.25,-71.83 437.25,-47.93 437.25,-47.93"/>
<polygon fill="black" stroke="black" points="440.75,-47.93 437.25,-37.93 433.75,-47.93 440.75,-47.93"/>
</g>
<!-- [root] aws_s3_bucket_public_access_block.frontend (expand) -->
<g id="node2" class="node">
<title>[root] aws_s3_bucket_public_access_block.frontend (expand)</title>
<polygon fill="none" stroke="black" points="266.5,-180 0,-180 0,-144 266.5,-144 266.5,-180"/>
<text xml:space="preserve" text-anchor="middle" x="133.25" y="-156.95" font-family="Times,serif" font-size="14.00">aws_s3_bucket_public_access_block.frontend</text>
</g>
<!-- [root] aws_s3_bucket_public_access_block.frontend (expand)&#45;&gt;[root] aws_s3_bucket.frontend (expand) -->
<g id="edge2" class="edge">
<title>[root] aws_s3_bucket_public_access_block.frontend (expand)&#45;&gt;[root] aws_s3_bucket.frontend (expand)</title>
<path fill="none" stroke="black" d="M219.66,-143.83C219.66,-122.5 219.66,-90 219.66,-90 219.66,-90 351.46,-90 351.46,-90"/>
<polygon fill="black" stroke="black" points="351.46,-93.5 361.46,-90 351.46,-86.5 351.46,-93.5"/>
</g>
<!-- [root] aws_s3_object.frontend_files (expand) -->
<g id="node3" class="node">
<title>[root] aws_s3_object.frontend_files (expand)</title>
<polygon fill="none" stroke="black" points="782.75,-180 607.75,-180 607.75,-144 782.75,-144 782.75,-180"/>
<text xml:space="preserve" text-anchor="middle" x="695.25" y="-156.95" font-family="Times,serif" font-size="14.00">aws_s3_object.frontend_files</text>
</g>
<!-- [root] aws_s3_object.frontend_files (expand)&#45;&gt;[root] aws_s3_bucket.frontend (expand) -->
<g id="edge3" class="edge">
<title>[root] aws_s3_object.frontend_files (expand)&#45;&gt;[root] aws_s3_bucket.frontend (expand)</title>
<path fill="none" stroke="black" d="M666.08,-143.58C666.08,-134.72 666.08,-126 666.08,-126 666.08,-126 461.92,-126 461.92,-126 461.92,-126 461.92,-119.94 461.92,-119.94"/>
<polygon fill="black" stroke="black" points="465.42,-119.94 461.92,-109.94 458.42,-119.94 465.42,-119.94"/>
</g>
<!-- [root] local.s3_objects (expand) -->
<g id="node6" class="node">
<title>[root] local.s3_objects (expand)</title>
<ellipse fill="none" stroke="black" cx="695.25" cy="-90" rx="129.15" ry="18"/>
<text xml:space="preserve" text-anchor="middle" x="695.25" y="-84.95" font-family="Times,serif" font-size="14.00">[root] local.s3_objects (expand)</text>
</g>
<!-- [root] aws_s3_object.frontend_files (expand)&#45;&gt;[root] local.s3_objects (expand) -->
<g id="edge4" class="edge">
<title>[root] aws_s3_object.frontend_files (expand)&#45;&gt;[root] local.s3_objects (expand)</title>
<path fill="none" stroke="black" d="M724.42,-143.83C724.42,-143.83 724.42,-119.43 724.42,-119.43"/>
<polygon fill="black" stroke="black" points="727.92,-119.43 724.42,-109.43 720.92,-119.43 727.92,-119.43"/>
</g>
<!-- [root] data.aws_iam_policy_document.public_read_objects (expand) -->
<g id="node4" class="node">
<title>[root] data.aws_iam_policy_document.public_read_objects (expand)</title>
<polygon fill="none" stroke="black" points="589.62,-180 284.88,-180 284.88,-144 589.62,-144 589.62,-180"/>
<text xml:space="preserve" text-anchor="middle" x="437.25" y="-156.95" font-family="Times,serif" font-size="14.00">data.aws_iam_policy_document.public_read_objects</text>
</g>
<!-- [root] data.aws_iam_policy_document.public_read_objects (expand)&#45;&gt;[root] aws_s3_bucket.frontend (expand) -->
<g id="edge5" class="edge">
<title>[root] data.aws_iam_policy_document.public_read_objects (expand)&#45;&gt;[root] aws_s3_bucket.frontend (expand)</title>
<path fill="none" stroke="black" d="M412.58,-143.83C412.58,-143.83 412.58,-119.93 412.58,-119.93"/>
<polygon fill="black" stroke="black" points="416.08,-119.93 412.58,-109.93 409.08,-119.93 416.08,-119.93"/>
</g>
<!-- [root] provider[&quot;registry.terraform.io/hashicorp/aws&quot;] (close) -->
<g id="node7" class="node">
<title>[root] provider[&quot;registry.terraform.io/hashicorp/aws&quot;] (close)</title>
<ellipse fill="none" stroke="black" cx="437.25" cy="-234" rx="238.16" ry="18"/>
<text xml:space="preserve" text-anchor="middle" x="437.25" y="-228.95" font-family="Times,serif" font-size="14.00">[root] provider[&quot;registry.terraform.io/hashicorp/aws&quot;] (close)</text>
</g>
<!-- [root] provider[&quot;registry.terraform.io/hashicorp/aws&quot;] (close)&#45;&gt;[root] aws_s3_bucket_public_access_block.frontend (expand) -->
<g id="edge6" class="edge">
<title>[root] provider[&quot;registry.terraform.io/hashicorp/aws&quot;] (close)&#45;&gt;[root] aws_s3_bucket_public_access_block.frontend (expand)</title>
<path fill="none" stroke="black" d="M232.79,-224.59C232.79,-224.59 232.79,-191.8 232.79,-191.8"/>
<polygon fill="black" stroke="black" points="236.29,-191.8 232.79,-181.8 229.29,-191.8 236.29,-191.8"/>
</g>
<!-- [root] provider[&quot;registry.terraform.io/hashicorp/aws&quot;] (close)&#45;&gt;[root] aws_s3_object.frontend_files (expand) -->
<g id="edge7" class="edge">
<title>[root] provider[&quot;registry.terraform.io/hashicorp/aws&quot;] (close)&#45;&gt;[root] aws_s3_object.frontend_files (expand)</title>
<path fill="none" stroke="black" d="M641.58,-224.59C641.58,-224.59 641.58,-191.8 641.58,-191.8"/>
<polygon fill="black" stroke="black" points="645.08,-191.8 641.58,-181.8 638.08,-191.8 645.08,-191.8"/>
</g>
<!-- [root] provider[&quot;registry.terraform.io/hashicorp/aws&quot;] (close)&#45;&gt;[root] data.aws_iam_policy_document.public_read_objects (expand) -->
<g id="edge8" class="edge">
<title>[root] provider[&quot;registry.terraform.io/hashicorp/aws&quot;] (close)&#45;&gt;[root] data.aws_iam_policy_document.public_read_objects (expand)</title>
<path fill="none" stroke="black" d="M437.25,-215.83C437.25,-215.83 437.25,-191.93 437.25,-191.93"/>
<polygon fill="black" stroke="black" points="440.75,-191.93 437.25,-181.93 433.75,-191.93 440.75,-191.93"/>
</g>
<!-- [root] root -->
<g id="node8" class="node">
<title>[root] root</title>
<ellipse fill="none" stroke="black" cx="437.25" cy="-306" rx="49.3" ry="18"/>
<text xml:space="preserve" text-anchor="middle" x="437.25" y="-300.95" font-family="Times,serif" font-size="14.00">[root] root</text>
</g>
<!-- [root] root&#45;&gt;[root] provider[&quot;registry.terraform.io/hashicorp/aws&quot;] (close) -->
<g id="edge9" class="edge">
<title>[root] root&#45;&gt;[root] provider[&quot;registry.terraform.io/hashicorp/aws&quot;] (close)</title>
<path fill="none" stroke="black" d="M437.25,-287.83C437.25,-287.83 437.25,-263.93 437.25,-263.93"/>
<polygon fill="black" stroke="black" points="440.75,-263.93 437.25,-253.93 433.75,-263.93 440.75,-263.93"/>
</g>
</g>
</svg>
