<?xml version="1.0" encoding="UTF-8" standalone="no"?>
<!DOCTYPE svg PUBLIC "-//W3C//DTD SVG 1.1//EN"
 "http://www.w3.org/Graphics/SVG/1.1/DTD/svg11.dtd">
<!-- Generated by graphviz version 14.1.3 (20260303.0454)
 -->
<!-- Pages: 1 -->
<svg width="832pt" height="332pt"
 viewBox="0.00 0.00 832.00 332.00" xmlns="http://www.w3.org/2000/svg" xmlns:xlink="http://www.w3.org/1999/xlink">
<g id="graph0" class="graph" transform="scale(1 1) rotate(0) translate(4 328)">
<polygon fill="white" stroke="none" points="-4,4 -4,-328 828.4,-328 828.4,4 -4,4"/>
<!-- [root] aws_s3_bucket.frontend (expand) -->
<g id="node1" class="node">
<title>[root] aws_s3_bucket.frontend (expand)</title>
<polygon fill="none" stroke="black" points="511.25,-108 363.25,-108 363.25,-72 511.25,-72 511.25,-108"/>
<text xml:space="preserve" text-anchor="middle" x="437.25" y="-84.95" font-family="Times,serif" font-size="14.00">aws_s3_bucket.frontend</text>
</g>
<!-- [root] provider[&quot;registry.terraform.io/hashicorp/aws&quot;] -->
<g id="node5" class="node">
<title>[root] provider[&quot;registry.terraform.io/hashicorp/aws&quot;]</title>
<polygon fill="none" stroke="black" points="437.25,-36 172.82,-18 437.25,0 701.68,-18 437.25,-36"/>
<text xml:space="preserve" text-anchor="middle" x="437.25" y="-12.95" font-family="Times,serif" font-size="14.00">provider[&quot;registry.terraform.io/hashicorp/aws&quot;]</text>
</g>
<!-- [root] aws_s3_bucket.frontend (expand)&#45;&gt;[root] provider[&quot;registry.terraform.io/hashicorp/aws&quot;] -->
<g id="edge1" class="edge">
<title>[root] aws_s3_bucket.frontend (expand)&#45;&gt;[root] provider[&quot;registry.terraform.io/hashicorp/aws&quot;]</title>
<path fill="none" stroke="black" d="M437.25,-71.7C437.25,-64.41 437.25,-55.73 437.25,-47.54"/>
<polygon fill="black" stroke="black" points="440.75,-47.62 437.25,-37.62 433.75,-47.62 440.75,-47.62"/>
</g>
<!-- [root] aws_s3_bucket_public_access_block.frontend (expand) -->
<g id="node2" class="node">
<title>[root] aws_s3_bucket_public_access_block.frontend (expand)</title>
<polygon fill="none" stroke="black" points="266.5,-180 0,-180 0,-144 266.5,-144 266.5,-180"/>
<text xml:space="preserve" text-anchor="middle" x="133.25" y="-156.95" font-family="Times,serif" font-size="14.00">aws_s3_bucket_public_access_block.frontend</text>
</g>
<!-- [root] aws_s3_bucket_public_access_block.frontend (expand)&#45;&gt;[root] aws_s3_bucket.frontend (expand) -->
<g id="edge2" class="edge">
<title>[root] aws_s3_bucket_public_access_block.frontend (expand)&#45;&gt;[root] aws_s3_bucket.frontend (expand)</title>
<path fill="none" stroke="black" d="M209.18,-143.52C252.47,-133.55 306.84,-121.03 351.64,-110.71"/>
<polygon fill="black" stroke="black" points="352.38,-114.13 361.34,-108.48 350.81,-107.31 352.38,-114.13"/>
</g>
<!-- [root] aws_s3_object.frontend_files (expand) -->
<g id="node3" class="node">
<title>[root] aws_s3_object.frontend_files (expand)</title>
<polygon fill="none" stroke="black" points="782.75,-180 607.75,-180 607.75,-144 782.75,-144 782.75,-180"/>
<text xml:space="preserve" text-anchor="middle" x="695.25" y="-156.95" font-family="Times,serif" font-size="14.00">aws_s3_object.frontend_files</text>
</g>
<!-- [root] aws_s3_object.frontend_files (expand)&#45;&gt;[root] aws_s3_bucket.frontend (expand) -->
<g id="edge3" class="edge">
<title>[root] aws_s3_object.frontend_files (expand)&#45;&gt;[root] aws_s3_bucket.frontend (expand)</title>
<path fill="none" stroke="black" d="M630.81,-143.52C594.81,-133.75 549.78,-121.53 512.21,-111.34"/>
<polygon fill="black" stroke="black" points="513.34,-108.02 502.77,-108.78 511.51,-114.77 513.34,-108.02"/>
</g>
<!-- [root] local.s3_objects (expand) -->
<g id="node6" class="node">
<title>[root] local.s3_objects (expand)</title>
<ellipse fill="none" stroke="black" cx="695.25" cy="-90" rx="129.15" ry="18"/>
<text xml:space="preserve" text-anchor="middle" x="695.25" y="-84.95" font-family="Times,serif" font-size="14.00">[root] local.s3_objects (expand)</text>
</g>
<!-- [root] aws_s3_object.frontend_files (expand)&#45;&gt;[root] local.s3_objects (expand) -->
<g id="edge4" class="edge">
<title>[root] aws_s3_object.frontend_files (expand)&#45;&gt;[root] local.s3_objects (expand)</title>
<path fill="none" stroke="black" d="M695.25,-143.7C695.25,-136.41 695.25,-127.73 695.25,-119.54"/>
<polygon fill="black" stroke="black" points="698.75,-119.62 695.25,-109.62 691.75,-119.62 698.75,-119.62"/>
</g>
<!-- [root] data.aws_iam_policy_document.public_read_objects (expand) -->
<g id="node4" class="node">
<title>[root] data.aws_iam_policy_document.public_read_objects (expand)</title>
<polygon fill="none" stroke="black" points="589.62,-180 284.88,-180 284.88,-144 589.62,-144 589.62,-180"/>
<text xml:space="preserve" text-anchor="middle" x="437.25" y="-156.95" font-family="Times,serif" font-size="14.00">data.aws_iam_policy_document.public_read_objects</text>
</g>
<!-- [root] data.aws_iam_policy_document.public_read_objects (expand)&#45;&gt;[root] aws_s3_bucket.frontend (expand) -->
<g id="edge5" class="edge">
<title>[root] data.aws_iam_policy_document.public_read_objects (expand)&#45;&gt;[root] aws_s3_bucket.frontend (expand)</title>
<path fill="none" stroke="black" d="M437.25,-143.7C437.25,-136.41 437.25,-127.73 437.25,-119.54"/>
<polygon fill="black" stroke="black" points="440.75,-119.62 437.25,-109.62 433.75,-119.62 440.75,-119.62"/>
</g>
<!-- [root] provider[&quot;registry.terraform.io/hashicorp/aws&quot;] (close) -->
<g id="node7" class="node">
<title>[root] provider[&quot;registry.terraform.io/hashicorp/aws&quot;] (close)</title>
<ellipse fill="none" stroke="black" cx="437.25" cy="-234" rx="238.16" ry="18"/>
<text xml:space="preserve" text-anchor="middle" x="437.25" y="-228.95" font-family="Times,serif" font-size="14.00">[root] provider[&quot;registry.terraform.io/hashicorp/aws&quot;] (close)</text>
</g>
<!-- [root] provider[&quot;registry.terraform.io/hashicorp/aws&quot;] (close)&#45;&gt;[root] aws_s3_bucket_public_access_block.frontend (expand) -->
<g id="edge6" class="edge">
<title>[root] provider[&quot;registry.terraform.io/hashicorp/aws&quot;] (close)&#45;&gt;[root] aws_s3_bucket_public_access_block.frontend (expand)</title>
<path fill="none" stroke="black" d="M365.21,-216.41C321.74,-206.4 266.07,-193.58 220.16,-183.01"/>
<polygon fill="black" stroke="black" points="221.02,-179.62 210.49,-180.79 219.45,-186.44 221.02,-179.62"/>
</g>
<!-- [root] provider[&quot;registry.terraform.io/hashicorp/aws&quot;] (close)&#45;&gt;[root] aws_s3_object.frontend_files (expand) -->
<g id="edge7" class="edge">
<title>[root] provider[&quot;registry.terraform.io/hashicorp/aws&quot;] (close)&#45;&gt;[root] aws_s3_object.frontend_files (expand)</title>
<path fill="none" stroke="black" d="M499.38,-216.14C535.61,-206.31 581.57,-193.84 619.87,-183.45"/>
<polygon fill="black" stroke="black" points="620.77,-186.83 629.51,-180.84 618.94,-180.08 620.77,-186.83"/>
</g>
<!-- [root] provider[&quot;registry.terraform.io/hashicorp/aws&quot;] (close)&#45;&gt;[root] data.aws_iam_policy_document.public_read_objects (expand) -->
<g id="edge8" class="edge">
<title>[root] provider[&quot;registry.terraform.io/hashicorp/aws&quot;] (close)&#45;&gt;[root] data.aws_iam_policy_document.public_read_objects (expand)</title>
<path fill="none" stroke="black" d="M437.25,-215.7C437.25,-208.41 437.25,-199.73 437.25,-191.54"/>
<polygon fill="black" stroke="black" points="440.75,-191.62 437.25,-181.62 433.75,-191.62 440.75,-191.62"/>
</g>
<!-- [root] root -->
<g id="node8" class="node">
<title>[root] root</title>
<ellipse fill="none" stroke="black" cx="437.25" cy="-306" rx="49.3" ry="18"/>
<text xml:space="preserve" text-anchor="middle" x="437.25" y="-300.95" font-family="Times,serif" font-size="14.00">[root] root</text>
</g>
<!-- [root] root&#45;&gt;[root] provider[&quot;registry.terraform.io/hashicorp/aws&quot;] (close) -->
<g id="edge9" class="edge">
<title>[root] root&#45;&gt;[root] provider[&quot;registry.terraform.io/hashicorp/aws&quot;] (close)</title>
<path fill="none" stroke="black" d="M437.25,-287.7C437.25,-280.41 437.25,-271.73 437.25,-263.54"/>
<polygon fill="black" stroke="black" points="440.75,-263.62 437.25,-253.62 433.75,-263.62 440.75,-263.62"/>
</g>
</g>
</svg>
